<svg width="320" height="40" viewBox="0 0 320 40" fill="none" xmlns="http://www.w3.org/2000/svg">
  <!-- Visa -->
  <g transform="translate(10, 5)">
    <rect x="0" y="0" width="45" height="30" rx="4" fill="#FFFFFF" />
    <path d="M18.5 20h-3l1.9-12h3L18.5 20zm10.6-11.6c-.6-.2-1.5-.5-2.6-.5-2.9 0-4.9 1.5-4.9 3.6 0 1.6 1.4 2.4 2.5 2.9 1.1.5 1.5.9 1.5 1.3 0 .7-.9 1-1.7 1-.9 0-2.1-.4-2.7-.7l-.5 2.1c.6.3 1.7.6 2.9.6 3.1 0 5-1.4 5-3.8 0-1.3-.8-2.2-2.5-3-1-.5-1.7-.8-1.7-1.3 0-.4.5-.9 1.5-.9.9 0 1.7.2 2.2.5l.4-2zM35 12l-.9 2.1h-1.9l-3.2 5.9h3L30.6 20h2.9l.5 3.7h2.6L35 12zm-13.1-4h-2.7L14 20h2.7l5.1-12z" fill="#172B85"/>
  </g>

  <!-- MasterCard -->
  <g transform="translate(65, 5)">
    <rect x="0" y="0" width="45" height="30" rx="4" fill="#FFFFFF" />
    <circle cx="17" cy="15" r="10" fill="#EB001B" />
    <circle cx="28" cy="15" r="10" fill="#F79E1B" />
    <path d="M22.5 8.5a9.9 9.9 0 0 0 0 13 9.9 9.9 0 0 0 0-13z" fill="#FF5F00" />
  </g>

  <!-- American Express -->
  <g transform="translate(120, 5)">
    <rect x="0" y="0" width="45" height="30" rx="4" fill="#006FCF" />
    <path d="M4 19l1-2.5h2L8 19H9l-1.5-3.5L9 12H8l-1 2.5H5L4 12H3l1.5 3.5L3 19h1zm8 0v-3h3v-1h-3v-2h3v-1h-4v7h1zm6 0v-1h-2v-5h-1v6h3zm3-7h-1v7h1v-7zm4 7v-7h-1l-2 4-2-4h-1v7h1v-5l2 3 2-3v5h1zm5 0v-1h-3v-2h3v-1h-3v-2h3v-1h-4v7h4z" fill="#FFFFFF" />
  </g>

  <!-- PayPal -->
  <g transform="translate(175, 5)">
    <rect x="0" y="0" width="45" height="30" rx="4" fill="#FFFFFF" />
    <path d="M12 18h-2l.5-3h2c.8 0 1.5.2 1.5 1 0 1-1 2-2 2zm.2-4h-2l.5-3h2c.8 0 1.3.4 1.3 1 0 1-1 2-1.8 2zm5.3 4h-2l.5-3h2c.8 0 1.5.2 1.5 1 0 1-1 2-2 2zm.2-4h-2l.5-3h2c.8 0 1.3.4 1.3 1 0 1-1 2-1.8 2z" fill="#253B80" />
    <path d="M27 14c0 2.2-1.8 4-4 4h-6l-1 3h-2l3-11h8c2.2 0 2.7 1.8 2 4z" fill="#179BD7" />
    <path d="M35 10c0 2.2-1.8 4-4 4h-6l-1 3h-2l3-11h8c2.2 0 2.7 1.8 2 4z" fill="#253B80" />
  </g>

  <!-- Apple Pay -->
  <g transform="translate(230, 5)">
    <rect x="0" y="0" width="45" height="30" rx="4" fill="#000000" />
    <path d="M15 12c-.83 0-1.5-.67-1.5-1.5s.67-1.5 1.5-1.5 1.5.67 1.5 1.5-.67 1.5-1.5 1.5zm-3 6c-.83 0-1.5-.67-1.5-1.5s.67-1.5 1.5-1.5 1.5.67 1.5 1.5-.67 1.5-1.5 1.5zm6 0c-.83 0-1.5-.67-1.5-1.5s.67-1.5 1.5-1.5 1.5.67 1.5 1.5-.67 1.5-1.5 1.5zm6-3c-.83 0-1.5-.67-1.5-1.5s.67-1.5 1.5-1.5 1.5.67 1.5 1.5-.67 1.5-1.5 1.5zm3 3c-.83 0-1.5-.67-1.5-1.5s.67-1.5 1.5-1.5 1.5.67 1.5 1.5-.67 1.5-1.5 1.5z" fill="#FFFFFF" />
  </g>

  <!-- Bitcoin -->
  <g transform="translate(285, 5)">
    <rect x="0" y="0" width="45" height="30" rx="4" fill="#F7931A" />
    <path d="M25 15c0-2.5-2-3-4.5-3h-1.5v-2h-2v2h-1v-2h-2v2h-3v2h3v10h-3v2h3v2h2v-2h1v2h2v-2h1.5c2.5 0 4.5-.5 4.5-3 0-1.5-1-2.5-2.5-3 1-.5 2-1.5 2-2.5zm-4.5 5h-2.5v-3h2.5c1 0 2 .5 2 1.5s-1 1.5-2 1.5zm-.5-5h-2v-3h2c1 0 2 .5 2 1.5s-1 1.5-2 1.5z" fill="#FFFFFF" />
  </g>
</svg> 