<?xml version="1.0" encoding="UTF-8"?>
<svg width="24" height="24" viewBox="0 0 24 24" fill="none" xmlns="http://www.w3.org/2000/svg">
  <circle cx="12" cy="12" r="11" fill="white" stroke="#FFFFFF" stroke-width="1"/>
  <path d="M12 4C7.582 4 4 7.582 4 12C4 16.418 7.582 20 12 20C16.418 20 20 16.418 20 12C20 7.582 16.418 4 12 4ZM12 18.8C8.24 18.8 5.2 15.76 5.2 12C5.2 8.24 8.24 5.2 12 5.2C15.76 5.2 18.8 8.24 18.8 12C18.8 15.76 15.76 18.8 12 18.8Z" fill="#FFD700"/>
  <path d="M12 6.4C9.352 6.4 7.2 8.552 7.2 11.2H8.4C8.4 9.212 9.992 7.6 11.98 7.6H12C13.988 7.6 15.6 9.212 15.6 11.2C15.6 12.474 14.86 13.608 13.724 14.14L13.112 14.432C12.512 14.739 12.2 15.332 12.2 16V16.8H13.4V16C13.4 15.784 13.47 15.582 13.728 15.464L14.34 15.172C15.88 14.458 16.8 12.943 16.8 11.2C16.8 8.552 14.648 6.4 12 6.4Z" fill="#FFD700"/>
  <path d="M12 19.2C12.66 19.2 13.2 18.66 13.2 18C13.2 17.34 12.66 16.8 12 16.8C11.34 16.8 10.8 17.34 10.8 18C10.8 18.66 11.34 19.2 12 19.2Z" fill="#FFD700"/>
</svg> 